<svg width="101" height="30" viewBox="0 0 101 30" fill="none" xmlns="http://www.w3.org/2000/svg">
<g clip-path="url(#clip0_192_2978)">
<rect width="100.671" height="30" rx="8" fill="white"/>
<path d="M-167.894 29.9984C-169.186 29.9984 -170.446 29.9954 -171.728 29.99C-174.383 29.9836 -177.033 29.9409 -179.654 29.8621C-182.098 29.7843 -184.466 29.6394 -186.679 29.4324C-188.872 29.2271 -190.872 28.9579 -192.602 28.6351C-194.358 28.3161 -195.82 27.9462 -196.929 27.5399C-198.051 27.131 -198.828 26.6926 -199.232 26.2402C-199.668 25.754 -199.904 25.2625 -199.938 24.7697C-199.965 24.6043 -200 24.0536 -200 24.0536V5.93643C-200 5.93643 -199.963 5.39417 -199.938 5.23486C-199.905 4.74288 -199.671 4.25205 -199.236 3.76665C-198.831 3.31296 -198.054 2.87338 -196.931 2.46311C-195.826 2.0571 -194.372 1.68686 -192.627 1.36674C-190.884 1.04357 -188.877 0.772982 -186.681 0.564841C-184.473 0.358486 -182.109 0.214681 -179.67 0.138244C-177.041 0.058692 -174.382 0.0156824 -171.718 0.00957598L-167.892 0H267.871L271.743 0.00996028C274.383 0.0157633 277.017 0.0583891 279.623 0.137475C282.087 0.214871 284.474 0.35968 286.708 0.567139C291.108 0.986604 294.689 1.65024 296.948 2.46502C298.053 2.87246 298.818 3.30846 299.217 3.75823C299.657 4.24761 299.904 4.74229 299.954 5.23831C299.967 5.46042 299.966 5.699 299.966 5.93643C300 6.23053 300 6.51046 300 6.79269V23.2065C300 23.4914 300 23.7694 299.966 24.0497C299.966 24.3048 299.966 24.5384 299.95 24.7789C299.9 25.266 299.658 25.7519 299.225 26.2325C298.83 26.6882 298.057 27.13 296.936 27.5422C295.818 27.9441 294.365 28.3109 292.629 28.629C290.897 28.9535 288.893 29.2243 286.695 29.4309C284.468 29.6395 282.084 29.7849 279.623 29.8621C277.002 29.9413 274.352 29.9841 271.697 29.99C270.455 29.9954 269.154 29.9984 267.892 29.9984L263.295 30L-167.894 29.9984Z" fill="black"/>
<path d="M21.6766 14.2375C21.6854 13.5368 21.8674 12.8499 22.2056 12.2405C22.5437 11.6311 23.0271 11.1191 23.6108 10.7521C23.24 10.2105 22.7509 9.76481 22.1822 9.4504C21.6136 9.13598 20.9811 8.96151 20.3349 8.94084C18.9566 8.79288 17.6205 9.78433 16.9181 9.78433C16.2022 9.78433 15.1208 8.95553 13.9563 8.98003C13.2031 9.00492 12.4691 9.22892 11.8257 9.63022C11.1823 10.0315 10.6515 10.5964 10.285 11.2699C8.69766 14.0807 9.88171 18.2116 11.4023 20.4837C12.1631 21.5962 13.0522 22.839 14.2156 22.7949C15.3541 22.7466 15.7793 22.0524 17.1535 22.0524C18.515 22.0524 18.9139 22.7949 20.1009 22.7669C21.3226 22.7466 22.0923 21.6494 22.8263 20.5263C23.373 19.7336 23.7936 18.8574 24.0726 17.9303C23.3629 17.6233 22.7572 17.1094 22.3311 16.4527C21.9051 15.796 21.6774 15.0256 21.6766 14.2375Z" fill="white"/>
<path d="M19.5095 7.47514C20.2149 6.69386 20.5624 5.68965 20.4783 4.67578C19.4006 4.78021 18.4051 5.25543 17.6901 6.00673C17.3406 6.37376 17.0729 6.80076 16.9023 7.26331C16.7317 7.72586 16.6616 8.21489 16.696 8.70245C17.235 8.70757 17.7683 8.59978 18.2557 8.38718C18.743 8.17459 19.1717 7.86275 19.5095 7.47514Z" fill="white"/>
<path d="M36.201 19.9538H32.2719L31.3283 22.7958H29.6641L33.3857 12.2812H35.1147L38.8363 22.7958H37.1437L36.201 19.9538ZM32.6788 18.6424H35.7933L34.2579 14.0301H34.215L32.6788 18.6424Z" fill="white"/>
<path d="M46.8932 19.024C46.8932 21.3561 45.6292 22.8544 43.7216 22.8544C43.2384 22.8794 42.7578 22.7695 42.335 22.5372C41.9121 22.305 41.5639 21.9599 41.3304 21.5414H41.2943V25.2585H39.7344V15.2713H41.2444V16.5195H41.2731C41.5173 16.103 41.8713 15.7597 42.2974 15.5261C42.7235 15.2925 43.2058 15.1773 43.6929 15.1928C45.6218 15.1928 46.8932 16.6984 46.8932 19.024ZM45.2898 19.024C45.2898 17.5046 44.4946 16.5058 43.2814 16.5058C42.0895 16.5058 41.2878 17.5257 41.2878 19.024C41.2878 20.5361 42.0895 21.5487 43.2814 21.5487C44.4946 21.5487 45.2898 20.5571 45.2898 19.024Z" fill="white"/>
<path d="M55.1666 19.024C55.1666 21.3561 53.9026 22.8544 51.9951 22.8544C51.5118 22.8794 51.0313 22.7695 50.6084 22.5372C50.1855 22.305 49.8374 21.9599 49.6039 21.5414H49.5678V25.2585H48.0078V15.2713H49.5178V16.5195H49.5465C49.7907 16.103 50.1447 15.7597 50.5708 15.5261C50.9969 15.2925 51.4792 15.1773 51.9663 15.1928C53.8952 15.1928 55.1666 16.6984 55.1666 19.024ZM53.5632 19.024C53.5632 17.5046 52.7681 16.5057 51.5549 16.5057C50.3629 16.5057 49.5612 17.5257 49.5612 19.024C49.5612 20.5361 50.3629 21.5487 51.5549 21.5487C52.7681 21.5487 53.5632 20.5571 53.5632 19.024H53.5632Z" fill="white"/>
<path d="M60.5769 19.9509C60.6933 20.9814 61.7045 21.6581 63.0864 21.6581C64.4105 21.6581 65.3632 20.9814 65.3632 20.0522C65.3632 19.2456 64.7886 18.7626 63.4282 18.4317L62.0678 18.1072C60.1402 17.6463 59.2453 16.7539 59.2453 15.3058C59.2453 13.5128 60.8237 12.2812 63.065 12.2812C65.2831 12.2812 66.8037 13.5128 66.8549 15.3058H65.2691C65.1741 14.2687 64.3082 13.6427 63.0427 13.6427C61.7771 13.6427 60.9112 14.2761 60.9112 15.1979C60.9112 15.9326 61.4643 16.3649 62.8173 16.6959L63.9738 16.977C66.1276 17.4812 67.0224 18.3377 67.0224 19.8577C67.0224 21.8018 65.4581 23.0195 62.97 23.0195C60.6421 23.0195 59.0703 21.8305 58.9688 19.9508L60.5769 19.9509Z" fill="white"/>
<path d="M70.3088 13.4023V15.192H71.7222V16.4213H70.3088V20.5903C70.3088 21.238 70.5918 21.5398 71.2131 21.5398C71.3809 21.5368 71.5484 21.5248 71.7149 21.5039V22.7258C71.4356 22.7789 71.1517 22.803 70.8676 22.7976C69.3628 22.7976 68.776 22.2225 68.776 20.7559V16.4213H67.6953V15.192H68.776V13.4023H70.3088Z" fill="white"/>
<path d="M72.3984 18.9945C72.3984 16.659 73.7968 15.1914 75.9774 15.1914C78.1654 15.1914 79.5573 16.659 79.5573 18.9945C79.5573 21.3365 78.1727 22.7977 75.9774 22.7977C73.783 22.7977 72.3984 21.3365 72.3984 18.9945ZM77.979 18.9945C77.979 17.3924 77.2326 16.4468 75.9774 16.4468C74.7223 16.4468 73.9767 17.3996 73.9767 18.9945C73.9767 20.6031 74.7223 21.5414 75.9774 21.5414C77.2326 21.5414 77.9789 20.6031 77.9789 18.9945H77.979Z" fill="white"/>
<path d="M80.8984 15.2715H82.3544V16.5525H82.3897C82.4882 16.1524 82.7198 15.7988 83.0456 15.5512C83.3713 15.3036 83.7714 15.177 84.1785 15.1927C84.3545 15.1921 84.5299 15.2114 84.7015 15.2504V16.6954C84.4795 16.6267 84.2478 16.5952 84.0157 16.602C83.7939 16.5929 83.5728 16.6325 83.3676 16.718C83.1624 16.8035 82.9778 16.933 82.8267 17.0975C82.6756 17.262 82.5615 17.4576 82.4921 17.671C82.4228 17.8844 82.3998 18.1104 82.425 18.3336V22.7977H80.8984L80.8984 15.2715Z" fill="white"/>
<path d="M91.7759 20.5254C91.573 21.8729 90.2741 22.7977 88.6123 22.7977C86.475 22.7977 85.1484 21.3509 85.1484 19.0298C85.1484 16.7015 86.4822 15.1914 88.5489 15.1914C90.5816 15.1914 91.8599 16.6022 91.8599 18.8528V19.3749H86.6708V19.4669C86.6468 19.7401 86.6807 20.0153 86.7701 20.2743C86.8595 20.5332 87.0024 20.77 87.1893 20.9688C87.3763 21.1677 87.6029 21.3241 87.8543 21.4277C88.1056 21.5312 88.3759 21.5795 88.6472 21.5695C89.0036 21.6032 89.3612 21.5198 89.6669 21.3317C89.9726 21.1436 90.21 20.8608 90.3439 20.5254L91.7759 20.5254ZM86.6779 18.31H90.351C90.3645 18.0643 90.3277 17.8185 90.2427 17.588C90.1578 17.3574 90.0266 17.1471 89.8574 16.9702C89.6882 16.7933 89.4846 16.6536 89.2594 16.56C89.0343 16.4663 88.7924 16.4207 88.5489 16.426C88.3033 16.4245 88.0599 16.4722 87.8326 16.5663C87.6054 16.6604 87.3988 16.799 87.2249 16.9741C87.0509 17.1493 86.913 17.3575 86.8192 17.5868C86.7253 17.8161 86.6773 18.0619 86.6779 18.31V18.31Z" fill="white"/>
<path d="M32.5227 4.68136C32.8375 4.65832 33.1534 4.70682 33.4475 4.82335C33.7417 4.93987 34.0069 5.12153 34.2239 5.35521C34.4409 5.58889 34.6044 5.86877 34.7025 6.17466C34.8006 6.48056 34.8309 6.80484 34.7912 7.12411C34.7912 8.69469 33.9587 9.59748 32.5227 9.59748H30.7812V4.68136H32.5227ZM31.53 8.90224H32.439C32.664 8.91595 32.8891 8.87834 33.098 8.79215C33.3069 8.70595 33.4943 8.57335 33.6466 8.40398C33.7989 8.23461 33.9122 8.03275 33.9784 7.81308C34.0445 7.59341 34.0618 7.36147 34.0289 7.13413C34.0594 6.90769 34.0404 6.67719 33.9732 6.45913C33.9061 6.24107 33.7924 6.04086 33.6405 5.87284C33.4885 5.70482 33.302 5.57315 33.0943 5.48727C32.8866 5.40139 32.6628 5.36342 32.439 5.37609H31.53V8.90224Z" fill="white"/>
<path d="M35.7116 7.69682C35.6878 7.45618 35.7162 7.21338 35.7949 6.984C35.8736 6.75462 36.0009 6.54373 36.1686 6.36484C36.3364 6.18595 36.5408 6.04302 36.7688 5.94521C36.9969 5.8474 37.2435 5.79688 37.4928 5.79688C37.7422 5.79688 37.9888 5.8474 38.2168 5.94521C38.4449 6.04302 38.6493 6.18595 38.817 6.36484C38.9847 6.54373 39.112 6.75462 39.1908 6.984C39.2695 7.21338 39.2979 7.45618 39.2741 7.69682C39.2983 7.93771 39.2703 8.18084 39.1918 8.41059C39.1132 8.64033 38.986 8.85162 38.8183 9.03086C38.6505 9.2101 38.4459 9.35333 38.2177 9.45135C37.9894 9.54937 37.7425 9.60001 37.4928 9.60001C37.2432 9.60001 36.9963 9.54937 36.768 9.45135C36.5398 9.35333 36.3352 9.2101 36.1674 9.03086C35.9996 8.85162 35.8724 8.64033 35.7939 8.41059C35.7154 8.18084 35.6874 7.93771 35.7116 7.69682ZM38.5074 7.69682C38.5074 6.90308 38.1396 6.4389 37.4941 6.4389C36.8461 6.4389 36.4816 6.90308 36.4816 7.69683C36.4816 8.49692 36.8461 8.95752 37.4941 8.95752C38.1396 8.95751 38.5074 8.49374 38.5074 7.69682H38.5074Z" fill="white"/>
<path d="M43.8604 9.60001H43.1002L42.3329 6.799H42.2749L41.5107 9.60001H40.7578L39.7344 5.79688H40.4776L41.1427 8.69889H41.1975L41.9608 5.79688H42.6638L43.4272 8.69889H43.4851L44.147 5.79688H44.8798L43.8604 9.60001Z" fill="white"/>
<path d="M45.7734 5.8725H46.4712V6.46464H46.5253C46.6172 6.25197 46.7722 6.07368 46.9687 5.95464C47.1651 5.8356 47.3933 5.78173 47.6213 5.80054C47.8 5.78691 47.9795 5.81425 48.1464 5.88056C48.3132 5.94686 48.4633 6.05042 48.5854 6.18357C48.7074 6.31671 48.7984 6.47603 48.8516 6.64972C48.9048 6.82341 48.9188 7.00702 48.8926 7.18694V9.59997H48.1677V7.37167C48.1677 6.77265 47.9113 6.47475 47.3752 6.47475C47.2539 6.46902 47.1328 6.48998 47.0202 6.53619C46.9076 6.58241 46.8061 6.65279 46.7228 6.74251C46.6395 6.83223 46.5764 6.93917 46.5376 7.056C46.4988 7.17282 46.4854 7.29678 46.4983 7.41936V9.60001H45.7734L45.7734 5.8725Z" fill="white"/>
<path d="M50.25 4.45312H50.9211V9.59854H50.25V4.45312Z" fill="white"/>
<path d="M51.8209 7.69686C51.7972 7.45621 51.8256 7.2134 51.9043 6.98402C51.983 6.75463 52.1103 6.54373 52.2781 6.36484C52.4458 6.18595 52.6502 6.04302 52.8782 5.94521C53.1063 5.8474 53.3529 5.79688 53.6022 5.79688C53.8516 5.79688 54.0982 5.8474 54.3262 5.94521C54.5542 6.04302 54.7586 6.18595 54.9264 6.36484C55.0941 6.54373 55.2214 6.75463 55.3001 6.98402C55.3788 7.2134 55.4072 7.45621 55.3835 7.69686C55.4077 7.93776 55.3796 8.18089 55.3011 8.41063C55.2226 8.64038 55.0953 8.85166 54.9276 9.03089C54.7598 9.21012 54.5552 9.35335 54.327 9.45136C54.0987 9.54937 53.8519 9.60001 53.6022 9.60001C53.3526 9.60001 53.1057 9.54937 52.8774 9.45136C52.6492 9.35335 52.4446 9.21012 52.2769 9.03089C52.1091 8.85166 51.9819 8.64038 51.9033 8.41063C51.8248 8.18089 51.7967 7.93776 51.8209 7.69686ZM54.6164 7.69686C54.6164 6.90313 54.2487 6.43896 53.6032 6.43896C52.9553 6.43896 52.5909 6.90313 52.5909 7.69687C52.5909 8.49696 52.9554 8.95755 53.6032 8.95755C54.2487 8.95754 54.6164 8.49377 54.6164 7.69686H54.6164Z" fill="white"/>
<path d="M56.2891 8.4969C56.2891 7.837 56.7892 7.45656 57.677 7.4025L58.6878 7.34525V7.02882C58.6878 6.64162 58.4272 6.42298 57.9239 6.42298C57.5127 6.42298 57.2279 6.57126 57.1461 6.83045H56.4331C56.5084 6.20076 57.1113 5.79688 57.9578 5.79688C58.8934 5.79688 59.4211 6.25442 59.4211 7.02882V9.53366H58.7121V9.01847H58.6538C58.5356 9.20327 58.3695 9.35393 58.1726 9.45505C57.9756 9.55618 57.7549 9.60415 57.533 9.59406C57.3763 9.61007 57.218 9.59365 57.0682 9.54586C56.9184 9.49808 56.7804 9.41998 56.6632 9.31661C56.546 9.21324 56.4522 9.08688 56.3877 8.9457C56.3233 8.80452 56.2897 8.65163 56.2891 8.4969ZM58.6878 8.18364V7.87715L57.7766 7.93439C57.2627 7.96818 57.0296 8.13991 57.0296 8.46311C57.0296 8.79305 57.3209 8.98506 57.7216 8.98506C57.8389 8.99673 57.9575 8.98509 58.0702 8.95082C58.1829 8.91656 58.2875 8.86036 58.3776 8.78559C58.4678 8.71082 58.5417 8.619 58.595 8.51558C58.6483 8.41217 58.6799 8.29929 58.6878 8.18364Z" fill="white"/>
<path d="M60.3125 7.70745C60.3125 6.55196 60.9351 5.81997 61.9035 5.81997C62.1431 5.80944 62.3808 5.86418 62.589 5.97779C62.7971 6.09139 62.9671 6.25918 63.0789 6.46152H63.1355V4.45312H63.8919V9.53741H63.1671V8.95967H63.1072C62.9867 9.16065 62.8108 9.32635 62.5986 9.43881C62.3865 9.55127 62.1461 9.60621 61.9035 9.59768C60.9285 9.59772 60.3125 8.86571 60.3125 7.70745ZM61.0939 7.70745C61.0939 8.48306 61.4771 8.94978 62.118 8.94978C62.7556 8.94978 63.1496 8.47633 63.1496 7.71062C63.1496 6.94849 62.7515 6.4683 62.118 6.4683C61.4813 6.4683 61.0939 6.93818 61.0939 7.70745H61.0939Z" fill="white"/>
<path d="M66.8131 7.69682C66.7894 7.45618 66.8178 7.21338 66.8965 6.984C66.9752 6.75462 67.1025 6.54373 67.2702 6.36484C67.4379 6.18595 67.6424 6.04302 67.8704 5.94521C68.0984 5.8474 68.345 5.79688 68.5944 5.79688C68.8437 5.79688 69.0903 5.8474 69.3184 5.94521C69.5464 6.04302 69.7508 6.18595 69.9186 6.36484C70.0863 6.54373 70.2136 6.75462 70.2923 6.984C70.371 7.21338 70.3994 7.45618 70.3757 7.69682C70.3999 7.93771 70.3718 8.18084 70.2933 8.41059C70.2148 8.64033 70.0876 8.85162 69.9198 9.03086C69.752 9.2101 69.5475 9.35333 69.3192 9.45135C69.0909 9.54937 68.844 9.60001 68.5944 9.60001C68.3447 9.60001 68.0978 9.54937 67.8696 9.45135C67.6413 9.35333 67.4367 9.2101 67.269 9.03086C67.1012 8.85162 66.974 8.64033 66.8955 8.41059C66.817 8.18084 66.7889 7.93771 66.8131 7.69682ZM69.6089 7.69682C69.6089 6.90308 69.2411 6.4389 68.5956 6.4389C67.9477 6.4389 67.5832 6.90308 67.5832 7.69683C67.5832 8.49692 67.9477 8.95752 68.5956 8.95752C69.2411 8.95751 69.6089 8.49374 69.6089 7.69682Z" fill="white"/>
<path d="M71.2734 5.8725H72.021V6.46464H72.0791C72.1775 6.25197 72.3435 6.07368 72.554 5.95464C72.7645 5.8356 73.009 5.78173 73.2533 5.80054C73.4448 5.78691 73.6371 5.81425 73.8159 5.88056C73.9946 5.94686 74.1554 6.05042 74.2862 6.18357C74.417 6.31671 74.5145 6.47603 74.5715 6.64972C74.6285 6.82341 74.6435 7.00702 74.6154 7.18694V9.59997H73.8388V7.37167C73.8388 6.77265 73.564 6.47475 72.9896 6.47475C72.8596 6.46902 72.7299 6.48998 72.6092 6.53619C72.4886 6.58241 72.3799 6.65279 72.2907 6.74251C72.2014 6.83223 72.1337 6.93917 72.0922 7.056C72.0506 7.17282 72.0363 7.29678 72.05 7.41936V9.60001H71.2734V5.8725Z" fill="white"/>
<path d="M78.7115 4.90234V5.85177H79.5574V6.4743H78.7115V8.39995C78.7115 8.79223 78.88 8.964 79.2636 8.964C79.3618 8.9637 79.4599 8.958 79.5574 8.94694V9.56256C79.4191 9.58631 79.2789 9.59894 79.1383 9.60033C78.2814 9.60033 77.9401 9.31119 77.9401 8.58918V6.47427H77.3203V5.85173H77.9401V4.90234H78.7115Z" fill="white"/>
<path d="M80.4453 4.45312H81.2055V6.49251H81.2662C81.3682 6.27939 81.5367 6.10138 81.7487 5.98275C81.9608 5.86412 82.2061 5.81063 82.4512 5.82957C82.6393 5.81982 82.8274 5.84973 83.002 5.91716C83.1765 5.98458 83.3333 6.08787 83.4612 6.21964C83.589 6.35142 83.6847 6.50843 83.7415 6.67949C83.7983 6.85055 83.8147 7.03143 83.7896 7.20922V9.59854H83.0219V7.3894C83.0219 6.79829 82.7328 6.49892 82.1909 6.49892C82.059 6.48863 81.9264 6.50588 81.8023 6.54949C81.6783 6.59309 81.5657 6.66198 81.4725 6.75135C81.3793 6.84072 81.3077 6.9484 81.2628 7.06685C81.2178 7.18531 81.2006 7.31169 81.2123 7.43715V9.59852H80.4453L80.4453 4.45312Z" fill="white"/>
<path d="M88.0071 8.5344C87.9084 8.8683 87.6945 9.15712 87.4029 9.35034C87.1112 9.54356 86.7604 9.62888 86.4118 9.59136C86.1692 9.59771 85.9281 9.55161 85.7053 9.45626C85.4825 9.3609 85.2833 9.21858 85.1215 9.03916C84.9597 8.85974 84.8391 8.64753 84.7683 8.41725C84.6974 8.18698 84.6778 7.94416 84.711 7.70564C84.6787 7.46639 84.6986 7.22304 84.7693 6.99208C84.84 6.76111 84.9599 6.54792 85.1209 6.36693C85.2819 6.18594 85.4801 6.04139 85.7023 5.94305C85.9245 5.84471 86.1653 5.79488 86.4086 5.79694C87.433 5.79694 88.051 6.49144 88.051 7.63867V7.89026H85.4512V7.93066C85.4398 8.06473 85.4568 8.19968 85.5011 8.32686C85.5453 8.45404 85.6159 8.57064 85.7082 8.66918C85.8005 8.76772 85.9125 8.84603 86.0371 8.89909C86.1617 8.95215 86.2961 8.97878 86.4317 8.97729C86.6055 8.99799 86.7816 8.96694 86.9376 8.88807C87.0936 8.8092 87.2224 8.68609 87.3076 8.53438L88.0071 8.5344ZM85.4512 7.35702H87.3108C87.32 7.2344 87.3032 7.11124 87.2615 6.99545C87.2199 6.87965 87.1542 6.77379 87.0689 6.68466C86.9835 6.59553 86.8804 6.5251 86.7659 6.4779C86.6515 6.4307 86.5284 6.40777 86.4046 6.41059C86.2789 6.40902 86.1542 6.43244 86.0378 6.47945C85.9214 6.52646 85.8156 6.59612 85.7268 6.68433C85.6379 6.77253 85.5678 6.87749 85.5204 6.99302C85.4731 7.10855 85.4496 7.23232 85.4512 7.35702H85.4512Z" fill="white"/>
</g>
<defs>
<clipPath id="clip0_192_2978">
<rect width="100.671" height="30" rx="8" fill="white"/>
</clipPath>
</defs>
</svg>
