<svg width="100" height="30" viewBox="0 0 100 30" fill="none" xmlns="http://www.w3.org/2000/svg">
<g clip-path="url(#clip0_192_2960)">
<rect width="99.1837" height="30" rx="8" fill="white"/>
<path d="M95.5102 0H3.67347C1.64467 0 0 1.67893 0 3.75V26.25C0 28.3211 1.64467 30 3.67347 30H95.5102C97.539 30 99.1837 28.3211 99.1837 26.25V3.75C99.1837 1.67893 97.539 0 95.5102 0Z" fill="black"/>
<path d="M34.7084 7.435C34.7221 7.71778 34.6794 8.00046 34.5831 8.26582C34.4869 8.53118 34.3389 8.77367 34.1483 8.97853C33.9347 9.20569 33.6767 9.38405 33.3912 9.50194C33.1057 9.61982 32.7991 9.67459 32.4916 9.66264C32.1821 9.66548 31.8751 9.60486 31.5888 9.48434C31.3025 9.36381 31.0425 9.18582 30.8243 8.96082C30.606 8.73582 30.4338 8.46835 30.3178 8.17413C30.2017 7.87992 30.1442 7.56489 30.1487 7.24757C30.1443 6.93025 30.2018 6.61522 30.3178 6.321C30.4338 6.02678 30.606 5.7593 30.8243 5.53427C31.0426 5.30925 31.3025 5.13122 31.5888 5.01064C31.8751 4.89006 32.1821 4.82937 32.4916 4.83212C32.8098 4.83114 33.1249 4.8971 33.4172 5.02594C33.6888 5.13879 33.9305 5.31582 34.1226 5.54258L33.7262 5.94933C33.5752 5.76704 33.3853 5.62276 33.1712 5.52764C32.9571 5.43251 32.7246 5.38909 32.4916 5.40071C32.257 5.39946 32.0246 5.44677 31.8083 5.5398C31.592 5.63282 31.3962 5.76965 31.2327 5.9421C31.0692 6.11454 30.9413 6.31904 30.8567 6.54336C30.7721 6.76768 30.7325 7.0072 30.7403 7.24757C30.7347 7.60762 30.8335 7.96126 31.0242 8.26365C31.2149 8.56604 31.4889 8.80356 31.8114 8.94609C32.1339 9.08862 32.4904 9.12975 32.8358 9.06425C33.1811 8.99875 33.4997 8.82957 33.7512 8.57818C33.9826 8.32251 34.1168 7.99011 34.1292 7.64153H32.4916V7.08612H34.6768C34.6975 7.20121 34.7081 7.31797 34.7084 7.435Z" fill="white" stroke="white" stroke-width="0.2" stroke-miterlimit="10"/>
<path d="M38.0866 5.57947H36.075V6.98385H37.8889V7.51599H36.075V8.92037H38.0866V9.46469H35.5078V5.03516H38.0866V5.57947Z" fill="white" stroke="white" stroke-width="0.2" stroke-miterlimit="10"/>
<path d="M40.4458 9.46469H39.8891V5.57947H38.6797V5.03516H41.6552V5.57947H40.4458V9.46469Z" fill="white" stroke="white" stroke-width="0.2" stroke-miterlimit="10"/>
<path d="M43.8359 9.46469V5.03516H44.431V9.46469H43.8359Z" fill="white" stroke="white" stroke-width="0.2" stroke-miterlimit="10"/>
<path d="M46.9151 9.46469H46.3212V5.57947H45.0312V5.03516H48.2051V5.57947H46.9151V9.46469Z" fill="white" stroke="white" stroke-width="0.2" stroke-miterlimit="10"/>
<path d="M53.8926 8.96332C53.4606 9.41219 52.8756 9.66425 52.2656 9.66425C51.6557 9.66425 51.0706 9.41219 50.6386 8.96332C50.425 8.73773 50.257 8.46965 50.1447 8.17504C50.0324 7.88042 49.9781 7.56527 49.985 7.24833C49.9781 6.93139 50.0324 6.61625 50.1447 6.32163C50.257 6.02701 50.425 5.75893 50.6386 5.53334C50.8521 5.31075 51.1057 5.13423 51.3847 5.01389C51.6637 4.89355 51.9628 4.83175 52.2648 4.83203C52.5667 4.83231 52.8657 4.89466 53.1445 5.01552C53.4234 5.13637 53.6766 5.31336 53.8897 5.53635C54.1035 5.76134 54.2719 6.02882 54.3846 6.3229C54.4974 6.61699 54.5524 6.93169 54.5463 7.24833C54.553 7.56524 54.4986 7.88033 54.3863 8.17493C54.274 8.46952 54.1061 8.73762 53.8926 8.96332ZM51.0597 8.57601C51.3796 8.90889 51.8132 9.09585 52.2652 9.09585C52.7173 9.09585 53.1509 8.90889 53.4708 8.57601C53.6348 8.40095 53.7631 8.19304 53.8479 7.96484C53.9327 7.73665 53.9722 7.4929 53.9641 7.24833C53.9722 7.00376 53.9327 6.76002 53.8479 6.53182C53.7631 6.30362 53.6348 6.09571 53.4708 5.92065C53.1509 5.58777 52.7173 5.40081 52.2652 5.40081C51.8132 5.40081 51.3796 5.58777 51.0597 5.92065C50.8959 6.09585 50.7678 6.3038 50.6831 6.53198C50.5985 6.76016 50.559 7.00383 50.5671 7.24833C50.559 7.49283 50.5985 7.73651 50.6831 7.96468C50.7678 8.19286 50.8959 8.40081 51.0597 8.57601Z" fill="white" stroke="white" stroke-width="0.2" stroke-miterlimit="10"/>
<path d="M55.3438 9.46469V5.03516H56.0279L58.1536 8.48096H58.1778L58.1536 7.62732V5.03516H58.716V9.46469H58.1294L55.9054 5.85196H55.8812L55.9054 6.70561V9.46469H55.3438Z" fill="white" stroke="white" stroke-width="0.2" stroke-miterlimit="10"/>
<path d="M49.86 16.0446C49.2425 16.047 48.6395 16.2378 48.1271 16.5929C47.6148 16.948 47.2161 17.4515 46.9814 18.0397C46.7467 18.628 46.6865 19.2747 46.8084 19.8982C46.9303 20.5217 47.2289 21.094 47.6664 21.5428C48.1039 21.9917 48.6607 22.297 49.2666 22.4202C49.8724 22.5434 50.5001 22.4789 51.0705 22.235C51.6408 21.991 52.1281 21.5785 52.471 21.0495C52.8138 20.5205 52.9968 19.8988 52.9968 19.2628C53.0028 18.8374 52.9257 18.4151 52.7701 18.021C52.6145 17.627 52.3835 17.2691 52.0908 16.9689C51.7981 16.6686 51.4498 16.4321 51.0666 16.2733C50.6834 16.1145 50.273 16.0367 49.86 16.0446ZM49.86 21.2133C49.4797 21.2412 49.1 21.1506 48.7704 20.9532C48.4408 20.7558 48.1766 20.4607 48.0121 20.1065C47.8476 19.7522 47.7905 19.3552 47.8481 18.9671C47.9058 18.5789 48.0756 18.2176 48.3355 17.9303C48.5953 17.6429 48.9331 17.4428 49.305 17.3559C49.6768 17.269 50.0654 17.2995 50.4202 17.4433C50.775 17.587 51.0795 17.8375 51.2942 18.162C51.5088 18.4866 51.6236 18.8701 51.6236 19.2628C51.6352 19.5109 51.5984 19.7588 51.5155 19.992C51.4326 20.2252 51.3052 20.439 51.1409 20.6208C50.9765 20.8025 50.7786 20.9486 50.5586 21.0503C50.3386 21.1521 50.1011 21.2075 49.86 21.2133ZM43.0172 16.0446C42.3997 16.047 41.7967 16.2378 41.2843 16.5929C40.772 16.9479 40.3733 17.4514 40.1386 18.0397C39.9039 18.628 39.8437 19.2747 39.9656 19.8981C40.0875 20.5216 40.386 21.0939 40.8235 21.5428C41.261 21.9917 41.8178 22.297 42.4237 22.4202C43.0296 22.5434 43.6573 22.4789 44.2276 22.235C44.7979 21.991 45.2853 21.5785 45.6281 21.0495C45.9709 20.5206 46.1539 19.8988 46.1539 19.2628C46.16 18.8374 46.0829 18.4151 45.9273 18.0211C45.7716 17.627 45.5406 17.2692 45.248 16.9689C44.9553 16.6687 44.607 16.4321 44.2238 16.2733C43.8406 16.1145 43.4302 16.0367 43.0172 16.0446ZM43.0172 21.2133C42.6369 21.2412 42.2572 21.1506 41.9277 20.9532C41.5981 20.7558 41.3338 20.4607 41.1693 20.1065C41.0048 19.7522 40.9477 19.3552 41.0054 18.9671C41.063 18.5789 41.2329 18.2176 41.4927 17.9303C41.7525 17.6429 42.0904 17.4428 42.4622 17.3559C42.834 17.269 43.2226 17.2995 43.5774 17.4433C43.9322 17.587 44.2368 17.8375 44.4514 18.162C44.666 18.4866 44.7808 18.8701 44.7809 19.2628C44.7924 19.5109 44.7556 19.7588 44.6727 19.992C44.5898 20.2253 44.4625 20.439 44.2981 20.6208C44.1338 20.8025 43.9358 20.9486 43.7158 21.0503C43.4958 21.1521 43.2583 21.2075 43.0172 21.2133ZM34.8774 17.0321V18.3973H38.0497C38.0039 19.0377 37.7495 19.6434 37.3276 20.1162C37.0097 20.4499 36.6274 20.7113 36.2054 20.8834C35.7833 21.0556 35.3309 21.1348 34.8774 21.1158C33.9501 21.1028 33.0651 20.7144 32.4139 20.0345C31.7626 19.3547 31.3975 18.4381 31.3975 17.483C31.3975 16.528 31.7626 15.6114 32.4139 14.9315C33.0651 14.2517 33.9501 13.8632 34.8774 13.8503C35.768 13.8383 36.6273 14.1888 37.2685 14.8255L38.2035 13.8625C37.766 13.4164 37.2465 13.0648 36.6753 12.8283C36.1042 12.5917 35.4929 12.475 34.8774 12.485C34.2341 12.4753 33.5954 12.5975 32.9984 12.8443C32.4014 13.0912 31.858 13.4578 31.3998 13.9229C30.9416 14.3879 30.5777 14.9422 30.3294 15.5534C30.081 16.1645 29.9531 16.8205 29.9531 17.483C29.9531 18.1456 30.081 18.8015 30.3294 19.4127C30.5777 20.0239 30.9416 20.5781 31.3998 21.0432C31.858 21.5083 32.4014 21.8749 32.9984 22.1217C33.5954 22.3686 34.2341 22.4907 34.8774 22.4811C35.5059 22.5079 36.1328 22.3968 36.7164 22.1551C37.3001 21.9134 37.8272 21.5467 38.2627 21.0792C39.0359 20.21 39.4481 19.0636 39.4109 17.8854C39.4139 17.5992 39.3901 17.3135 39.3398 17.0321H34.8774ZM68.1665 18.0925C67.9787 17.5096 67.6212 17.0004 67.1426 16.634C66.664 16.2676 66.0874 16.0618 65.4913 16.0446C65.0898 16.0472 64.693 16.1335 64.3248 16.2985C63.9567 16.4635 63.6248 16.7037 63.3493 17.0045C63.0738 17.3053 62.8604 17.6605 62.722 18.0487C62.5836 18.4368 62.5231 18.8499 62.544 19.2628C62.535 19.6859 62.6089 20.1066 62.7612 20.4996C62.9135 20.8927 63.1413 21.2501 63.4307 21.5505C63.7202 21.8509 64.0655 22.0882 64.446 22.248C64.8265 22.4079 65.2343 22.4872 65.6452 22.4811C66.16 22.484 66.6675 22.3553 67.122 22.1063C67.5765 21.8574 67.9638 21.4961 68.2492 21.0548L67.184 20.3234C67.0244 20.5964 66.7986 20.8219 66.5289 20.9779C66.2591 21.1339 65.9546 21.215 65.6452 21.2133C65.3269 21.2258 65.0122 21.1396 64.742 20.9657C64.4719 20.7918 64.2587 20.5383 64.1301 20.2381L68.3085 18.4583L68.1665 18.0925ZM63.9053 19.1653C63.8906 18.9311 63.9213 18.6962 63.9958 18.4744C64.0704 18.2525 64.1871 18.0483 64.3392 17.8734C64.4913 17.6986 64.6757 17.5568 64.8816 17.4563C65.0876 17.3558 65.311 17.2986 65.5386 17.288C65.7757 17.272 66.0121 17.3281 66.2184 17.4495C66.4247 17.5709 66.5918 17.7522 66.6987 17.9707L63.9053 19.1653ZM60.5081 22.286H61.8811V12.8264H60.5081V22.286ZM58.2591 16.7638H58.2117C58.003 16.5302 57.7482 16.3452 57.4645 16.2212C57.1808 16.0972 56.8746 16.037 56.5664 16.0446C55.7606 16.0799 54.9993 16.4344 54.4412 17.0341C53.8832 17.6338 53.5717 18.4323 53.5717 19.2628C53.5717 20.0934 53.8832 20.8919 54.4412 21.4916C54.9993 22.0913 55.7606 22.4458 56.5664 22.4811C56.8758 22.4896 57.1832 22.4285 57.4674 22.3022C57.7515 22.1759 58.0055 21.9874 58.2117 21.7497H58.2591V22.2129C58.2591 23.4442 57.6199 24.1024 56.5901 24.1024C56.2469 24.094 55.9139 23.9805 55.6335 23.7764C55.3531 23.5723 55.1381 23.2869 55.0158 22.9565L53.8203 23.4686C54.0456 24.0336 54.4296 24.5164 54.9231 24.8552C55.4166 25.194 55.997 25.3733 56.5901 25.3702C58.1999 25.3702 59.5611 24.395 59.5611 22.0179V16.2396H58.2591V16.7638ZM56.6848 21.2133C56.2103 21.1718 55.7681 20.9484 55.4458 20.5872C55.1236 20.226 54.9448 19.7534 54.9448 19.2628C54.9448 18.7723 55.1236 18.2997 55.4458 17.9385C55.7681 17.5773 56.2103 17.3538 56.6848 17.3124C56.921 17.3243 57.1523 17.385 57.3652 17.4909C57.578 17.5968 57.768 17.7458 57.9237 17.929C58.0794 18.1121 58.1978 18.3257 58.2717 18.5569C58.3456 18.7882 58.3735 19.0324 58.3538 19.275C58.3722 19.5161 58.3433 19.7586 58.2687 19.9879C58.194 20.2172 58.0753 20.4286 57.9195 20.6096C57.7637 20.7905 57.574 20.9373 57.3619 21.041C57.1498 21.1447 56.9195 21.2033 56.6848 21.2133ZM74.5981 12.8265H71.3131V22.286H72.6838V18.7021H74.5981C74.9859 18.724 75.3739 18.6643 75.7385 18.5265C76.1031 18.3888 76.4366 18.1759 76.7186 17.901C77.0006 17.626 77.2252 17.2947 77.3787 16.9274C77.5322 16.56 77.6114 16.1643 77.6114 15.7643C77.6114 15.3644 77.5322 14.9686 77.3787 14.6013C77.2252 14.2339 77.0006 13.9026 76.7186 13.6277C76.4366 13.3527 76.1031 13.1399 75.7385 13.0021C75.3739 12.8644 74.9859 12.8046 74.5981 12.8265ZM74.6336 17.3856H72.6838V14.1431H74.6336C74.843 14.1386 75.0513 14.1772 75.2461 14.2567C75.4409 14.3362 75.6183 14.4549 75.768 14.6059C75.9177 14.7569 76.0366 14.9371 76.1178 15.136C76.199 15.335 76.2408 15.5486 76.2408 15.7644C76.2408 15.9801 76.199 16.1938 76.1178 16.3927C76.0366 16.5916 75.9177 16.7719 75.768 16.9228C75.6183 17.0738 75.4409 17.1925 75.2461 17.272C75.0513 17.3515 74.843 17.3901 74.6336 17.3856ZM83.1062 16.0272C82.6058 15.9971 82.1078 16.1181 81.6733 16.3754C81.2388 16.6326 80.8866 17.0149 80.6601 17.4754L81.8772 17.9987C81.9979 17.7702 82.1806 17.5828 82.4031 17.4596C82.6256 17.3364 82.8781 17.2827 83.1298 17.305C83.4775 17.27 83.8246 17.3785 84.0948 17.6066C84.3651 17.8347 84.5365 18.1639 84.5714 18.5219V18.6193C84.1312 18.3785 83.6401 18.2531 83.1416 18.2542C81.83 18.2542 80.4947 18.9966 80.4947 20.384C80.5074 20.6764 80.5771 20.9631 80.6995 21.2273C80.8219 21.4914 80.9946 21.7275 81.2073 21.9216C81.42 22.1157 81.6684 22.2638 81.9377 22.3572C82.2071 22.4505 82.4919 22.4872 82.7753 22.465C83.1204 22.4859 83.4647 22.4111 83.7723 22.2485C84.0799 22.0858 84.3396 21.8412 84.5242 21.5401H84.5714V22.2703H85.8949V18.6437C85.8949 16.9643 84.6777 16.0272 83.1062 16.0272ZM82.9407 21.2115C82.4916 21.2115 81.8654 20.9803 81.8654 20.4083C81.8654 19.6781 82.6453 19.3982 83.3189 19.3982C83.7564 19.3862 84.189 19.4955 84.5714 19.7146C84.5211 20.1249 84.3282 20.5026 84.0284 20.7777C83.7286 21.0529 83.3423 21.207 82.9407 21.2115ZM90.7161 16.2341L89.1445 20.3352H89.0972L87.4665 16.2341H85.9894L88.4355 21.966L87.0411 25.1545H88.4709L92.2405 16.2341H90.7161ZM78.3676 22.286H79.7383V12.8265H78.3676V22.286Z" fill="white"/>
<path d="M7.48412 5.49172C7.24264 5.78456 7.1207 6.15996 7.1433 6.54102V23.0592C7.12064 23.4403 7.24258 23.8157 7.48412 24.1085L7.53862 24.1623L16.6623 14.9093V14.6909L7.53862 5.4375L7.48412 5.49172Z" fill="url(#paint0_linear_192_2960)"/>
<path d="M19.6458 17.9195L16.6641 14.8077V14.5876L19.6465 11.4766L19.7138 11.5166L23.2468 13.6105C24.2559 14.2086 24.2559 15.1871 23.2468 15.7855L19.7138 17.8795L19.6458 17.9195Z" fill="url(#paint1_linear_192_2960)"/>
<path d="M19.6395 17.8712L16.5768 14.6992L7.53906 24.0582C7.74557 24.2468 8.00928 24.3547 8.2845 24.3631C8.55973 24.3715 8.82912 24.28 9.04602 24.1043L19.6395 17.8712Z" fill="url(#paint2_linear_192_2960)"/>
<path d="M19.6395 11.5276L9.04602 5.29446C8.82912 5.11881 8.55973 5.02727 8.2845 5.03569C8.00928 5.04411 7.74557 5.15197 7.53906 5.34057L16.5768 14.6996L19.6395 11.5276Z" fill="url(#paint3_linear_192_2960)"/>
</g>
<defs>
<linearGradient id="paint0_linear_192_2960" x1="15.8532" y1="6.36686" x2="3.3199" y2="18.7247" gradientUnits="userSpaceOnUse">
<stop stop-color="#00A0FF"/>
<stop offset="0.00657" stop-color="#00A1FF"/>
<stop offset="0.2601" stop-color="#00BEFF"/>
<stop offset="0.5122" stop-color="#00D2FF"/>
<stop offset="0.7604" stop-color="#00DFFF"/>
<stop offset="1" stop-color="#00E3FF"/>
</linearGradient>
<linearGradient id="paint1_linear_192_2960" x1="24.5607" y1="14.698" x2="7.0886" y2="14.698" gradientUnits="userSpaceOnUse">
<stop stop-color="#FFE000"/>
<stop offset="0.4087" stop-color="#FFBD00"/>
<stop offset="0.7754" stop-color="#FFA500"/>
<stop offset="1" stop-color="#FF9C00"/>
</linearGradient>
<linearGradient id="paint2_linear_192_2960" x1="17.9753" y1="16.4227" x2="0.895368" y2="32.9161" gradientUnits="userSpaceOnUse">
<stop stop-color="#FF3A44"/>
<stop offset="1" stop-color="#C31162"/>
</linearGradient>
<linearGradient id="paint3_linear_192_2960" x1="5.26345" y1="-0.187742" x2="12.8903" y2="7.17723" gradientUnits="userSpaceOnUse">
<stop stop-color="#32A071"/>
<stop offset="0.0685" stop-color="#2DA771"/>
<stop offset="0.4762" stop-color="#15CF74"/>
<stop offset="0.8009" stop-color="#06E775"/>
<stop offset="1" stop-color="#00F076"/>
</linearGradient>
<clipPath id="clip0_192_2960">
<rect width="99.1837" height="30" rx="8" fill="white"/>
</clipPath>
</defs>
</svg>
