<svg width="24" height="24" viewBox="0 0 24 24" fill="none" xmlns="http://www.w3.org/2000/svg">
<path d="M20.2379 20.0929L18.9513 8.15625H17V11.4703C17 11.5698 16.963 11.6652 16.8972 11.7355C16.8314 11.8058 16.7421 11.8453 16.649 11.8453C16.5559 11.8453 16.4666 11.8058 16.4008 11.7355C16.3349 11.6652 16.2979 11.5698 16.2979 11.4703V8.15625H9.01377V11.4703C9.01377 11.5698 8.97678 11.6652 8.91095 11.7355C8.84512 11.8058 8.75583 11.8453 8.66272 11.8453C8.56962 11.8453 8.48033 11.8058 8.4145 11.7355C8.34866 11.6652 8.31168 11.5698 8.31168 11.4703V8.15625H6.09712L4.8105 20.0929C4.77645 20.4093 4.8064 20.7299 4.89833 21.0329C4.99026 21.3359 5.14201 21.6143 5.34334 21.8493C5.57095 22.1165 5.84886 22.3293 6.15884 22.4737C6.46881 22.6182 6.80387 22.691 7.14204 22.6875H17.9063C18.2446 22.6911 18.5797 22.6182 18.8898 22.4737C19.1998 22.3292 19.4778 22.1164 19.7054 21.8491C19.9067 21.6142 20.0584 21.3358 20.1503 21.0328C20.2421 20.7298 20.272 20.4093 20.2379 20.0929ZM9.01377 5.71711C9.01377 3.70195 10.6524 2.0625 12.6559 2.0625C14.6593 2.0625 16.2979 3.70195 16.2979 5.71711V8.15625H17V5.71711C17 3.28837 15.0464 1.3125 12.6559 1.3125C10.2653 1.3125 8.31168 3.28837 8.31168 5.71711V8.15625H9.01377V5.71711Z" fill="#DB242D"/>
</svg>
