<svg width="40" height="40" viewBox="0 0 40 40" fill="none" xmlns="http://www.w3.org/2000/svg">
<rect width="40" height="40" rx="20" fill="white" fill-opacity="0.6"/>
<g clip-path="url(#clip0_513_21316)">
<path d="M20 29C24.9706 29 29 24.9706 29 20C29 15.0294 24.9706 11 20 11C15.0294 11 11 15.0294 11 20C11 24.9706 15.0294 29 20 29Z" stroke="#313033" stroke-width="1.5" stroke-linecap="round" stroke-linejoin="round"/>
<path d="M20 25V25.01" stroke="#313033" stroke-width="1.5" stroke-linecap="round" stroke-linejoin="round"/>
<path d="M20 21.5002C19.9816 21.1755 20.0692 20.8537 20.2495 20.5832C20.4299 20.3126 20.6933 20.108 21 20.0002C21.3759 19.8564 21.7132 19.6274 21.9856 19.3311C22.2579 19.0348 22.4577 18.6794 22.5693 18.2928C22.6809 17.9061 22.7013 17.4989 22.6287 17.103C22.5562 16.7072 22.3928 16.3336 22.1513 16.0117C21.9099 15.6897 21.597 15.4282 21.2373 15.2478C20.8776 15.0673 20.4809 14.9728 20.0785 14.9717C19.6761 14.9706 19.2789 15.0629 18.9182 15.2414C18.5576 15.4198 18.2432 15.6796 18 16.0002" stroke="#313033" stroke-width="1.5" stroke-linecap="round" stroke-linejoin="round"/>
</g>
<defs>
<clipPath id="clip0_513_21316">
<rect width="24" height="24" fill="white" transform="translate(8 8)"/>
</clipPath>
</defs>
</svg>
