<svg width="14" height="14" viewBox="0 0 14 14" fill="none" xmlns="http://www.w3.org/2000/svg">
<path d="M6.99855 1.00143C7.08655 1.00143 7.17389 1.00143 7.26055 1.00143C6.40411 1.79723 5.85361 2.86799 5.70475 4.02757C5.55588 5.18716 5.81806 6.36225 6.44571 7.34858C7.07336 8.33491 8.0268 9.07012 9.14029 9.42641C10.2538 9.78269 11.4569 9.73753 12.5406 9.29876C12.1237 10.3018 11.4424 11.1728 10.5693 11.8189C9.69628 12.4651 8.66418 12.8621 7.58316 12.9677C6.50213 13.0733 5.41273 12.8834 4.43115 12.4184C3.44956 11.9533 2.61263 11.2306 2.00961 10.3272C1.4066 9.42376 1.06012 8.37361 1.00714 7.28874C0.954165 6.20387 1.19667 5.12496 1.7088 4.1671C2.22093 3.20925 2.98346 2.40838 3.91506 1.84992C4.84666 1.29146 5.91239 0.996356 6.99855 0.996094V1.00143Z" stroke="#1C1B1E" stroke-width="1.5" stroke-linecap="round" stroke-linejoin="round"/>
</svg>
