<svg width="40" height="40" viewBox="0 0 40 40" fill="none" xmlns="http://www.w3.org/2000/svg">
<g filter="url(#filter0_b_513_66641)">
<rect width="40" height="40" rx="20" fill="white" fill-opacity="0.6"/>
<g clip-path="url(#clip0_513_66641)">
<path d="M11 28L12.3 24.1C11.1764 22.4383 10.77 20.4704 11.1562 18.5623C11.5424 16.6542 12.6951 14.9357 14.3998 13.7263C16.1045 12.5169 18.2453 11.8989 20.4241 11.9872C22.6029 12.0756 24.6715 12.8642 26.2453 14.2065C27.819 15.5489 28.7909 17.3535 28.9801 19.285C29.1693 21.2164 28.563 23.1432 27.2739 24.7071C25.9848 26.271 24.1007 27.3656 21.9718 27.7873C19.8429 28.2091 17.6142 27.9293 15.7 27L11 28" stroke="#313033" stroke-width="1.5" stroke-linecap="round" stroke-linejoin="round"/>
<path d="M16 21L19 19L21 21L24 19" stroke="#313033" stroke-width="1.5" stroke-linecap="round" stroke-linejoin="round"/>
</g>
</g>
<defs>
<filter id="filter0_b_513_66641" x="-24" y="-24" width="88" height="88" filterUnits="userSpaceOnUse" color-interpolation-filters="sRGB">
<feFlood flood-opacity="0" result="BackgroundImageFix"/>
<feGaussianBlur in="BackgroundImageFix" stdDeviation="12"/>
<feComposite in2="SourceAlpha" operator="in" result="effect1_backgroundBlur_513_66641"/>
<feBlend mode="normal" in="SourceGraphic" in2="effect1_backgroundBlur_513_66641" result="shape"/>
</filter>
<clipPath id="clip0_513_66641">
<rect width="24" height="24" fill="white" transform="translate(8 8)"/>
</clipPath>
</defs>
</svg>
