<svg width="24" height="19" viewBox="0 0 24 19" fill="none" xmlns="http://www.w3.org/2000/svg">
<path d="M23.7762 10.3481L22.3925 8.96435L21.3237 6.11435C21.2703 5.9714 21.1746 5.84814 21.0493 5.76104C20.924 5.67393 20.7751 5.62712 20.6225 5.62685H19.1225C18.9236 5.62685 18.7328 5.70587 18.5921 5.84652C18.4515 5.98717 18.3725 6.17794 18.3725 6.37685C18.3725 6.57576 18.4515 6.76653 18.5921 6.90718C18.7328 7.04783 18.9236 7.12685 19.1225 7.12685H20.1012L21.0425 9.63935C21.0803 9.73939 21.1391 9.83017 21.215 9.9056L22.4975 11.1881V14.2519H20.5925C20.2304 13.6264 19.6547 13.1526 18.9713 12.9177C18.2878 12.6827 17.5426 12.7024 16.8725 12.9731V4.56185C16.8725 4.34703 16.7871 4.141 16.6352 3.9891C16.4833 3.83719 16.2773 3.75185 16.0625 3.75185H10.2762C10.0276 2.91212 9.57289 2.14793 8.95347 1.52885C8.33404 0.909765 7.56959 0.455472 6.72973 0.207336C5.88986 -0.0408011 5.00126 -0.074898 4.14485 0.108149C3.28844 0.291197 2.49142 0.685573 1.82638 1.25537C1.16134 1.82516 0.649394 2.55226 0.337173 3.37047C0.024951 4.18868 -0.0776309 5.07199 0.0387682 5.93998C0.155167 6.80796 0.486849 7.63304 1.00361 8.34008C1.52037 9.04712 2.20579 9.61366 2.99746 9.9881V14.9419C2.99746 15.1567 3.0828 15.3627 3.23471 15.5146C3.38661 15.6665 3.59264 15.7519 3.80746 15.7519H4.12246C4.12246 16.5475 4.43853 17.3106 5.00114 17.8732C5.56375 18.4358 6.32681 18.7519 7.12246 18.7519C7.91811 18.7519 8.68117 18.4358 9.24378 17.8732C9.80639 17.3106 10.1225 16.5475 10.1225 15.7519H14.9975C14.9975 16.5475 15.3135 17.3106 15.8761 17.8732C16.4388 18.4358 17.2018 18.7519 17.9975 18.7519C18.7931 18.7519 19.5562 18.4358 20.1188 17.8732C20.6814 17.3106 20.9975 16.5475 20.9975 15.7519H23.2475C23.4464 15.7519 23.6371 15.6728 23.7778 15.5322C23.9184 15.3915 23.9975 15.2008 23.9975 15.0019V10.8769C23.9966 10.6783 23.9171 10.4881 23.7762 10.3481ZM1.49746 5.25185C1.49746 4.51017 1.7174 3.78515 2.12945 3.16846C2.54151 2.55178 3.12718 2.07113 3.8124 1.7873C4.49762 1.50348 5.25162 1.42921 5.97905 1.57391C6.70648 1.7186 7.37467 2.07576 7.89911 2.6002C8.42356 3.12465 8.78071 3.79283 8.92541 4.52026C9.0701 5.24769 8.99584 6.00169 8.71201 6.68691C8.42818 7.37214 7.94754 7.95781 7.33085 8.36986C6.71417 8.78192 5.98914 9.00185 5.24746 9.00185C4.2529 9.00185 3.29907 8.60676 2.59581 7.9035C1.89255 7.20024 1.49746 6.24641 1.49746 5.25185ZM7.12246 17.2519C6.82579 17.2519 6.53578 17.1639 6.28911 16.9991C6.04243 16.8342 5.85018 16.6 5.73664 16.3259C5.62311 16.0518 5.59341 15.7502 5.65129 15.4592C5.70916 15.1682 5.85202 14.901 6.0618 14.6912C6.27158 14.4814 6.53886 14.3386 6.82983 14.2807C7.1208 14.2228 7.4224 14.2525 7.69649 14.366C7.97058 14.4796 8.20485 14.6718 8.36967 14.9185C8.53449 15.1652 8.62246 15.4552 8.62246 15.7519C8.62246 16.1497 8.46443 16.5312 8.18312 16.8125C7.90182 17.0938 7.52029 17.2519 7.12246 17.2519ZM17.9975 17.2519C17.7008 17.2519 17.4108 17.1639 17.1641 16.9991C16.9174 16.8342 16.7252 16.6 16.6116 16.3259C16.4981 16.0518 16.4684 15.7502 16.5263 15.4592C16.5842 15.1682 16.727 14.901 16.9368 14.6912C17.1466 14.4814 17.4139 14.3386 17.7048 14.2807C17.9958 14.2228 18.2974 14.2525 18.5715 14.366C18.8456 14.4796 19.0798 14.6718 19.2447 14.9185C19.4095 15.1652 19.4975 15.4552 19.4975 15.7519C19.4975 16.1497 19.3394 16.5312 19.0581 16.8125C18.7768 17.0938 18.3953 17.2519 17.9975 17.2519Z" fill="#489B1C"/>
</svg>
