<svg xmlns="http://www.w3.org/2000/svg" viewBox="0 0 435.97 126.74"><defs><style>.cls-1{fill:#3cbaec;}.cls-2{fill:#264877;}</style></defs><g id="Layer_2" data-name="Layer 2"><g id="Layer_1-2" data-name="Layer 1"><path class="cls-1" d="M182.8,29.43c-1.9,2.64-57,78.64-121.19,94.45a94.52,94.52,0,0,1-22.67,2.86,80.64,80.64,0,0,1-15.86-1.54,77.13,77.13,0,0,1-9.16-2.37C-3.93,117-2.47,97.55,6.37,76.81q.22-.56.48-1.11a181.87,181.87,0,0,1,19.34-33c1-1.38,2-2.74,3-4.06,7.69-10,15.3-17.81,20.59-21.19a203.81,203.81,0,0,0-21.66,32C17.11,70.32,10.39,95.33,34,105c9.71,4,21,4.28,33.14,1.93C109.2,98.75,160.26,58.47,182.8,29.43Z"/><path class="cls-1" d="M116.24,75.77v48.31H104.47V75.77Z"/><circle class="cls-2" cx="110.36" cy="61.87" r="10.23"/><path class="cls-1" d="M212.56,1.64V2.87c-.23,1.39-.47,2.78-.68,4.17-.68,4.49-1.35,9-2,13.5s-1.31,8.86-2,13.29-1.33,8.91-2,13.37c-.43,2.92-.87,5.84-1.28,8.77-.2,1.35-.74,2.12-1.84,2.32a2.6,2.6,0,0,1-1.27-.1q-15-5.11-30.06-10.27l-.39-.16L200.3,12.53l-.13-.12c-.38.32-.78.64-1.16,1Q181.3,28.53,163.6,43.71a2.55,2.55,0,0,1-2.93.57c-5.39-1.93-10.82-3.75-16.25-5.58a2.27,2.27,0,0,1-.36-4.37q32.53-17,65.05-34l.72-.37h1.09A2.82,2.82,0,0,1,212.56,1.64Z"/><path class="cls-1" d="M212.56,1.64A2.82,2.82,0,0,0,210.92,0h1.64Z"/><path class="cls-1" d="M156,86.18l-13.45,37.9H131l-13.44-37.9h9.83l9.39,28.62,9.45-28.62Z"/><path class="cls-1" d="M168.94,86.18v22.68a7.47,7.47,0,0,0,1.68,5.23,6.28,6.28,0,0,0,4.91,1.84,6.48,6.48,0,0,0,5-1.84,7.35,7.35,0,0,0,1.73-5.23V86.18h9.23V108.8a16.09,16.09,0,0,1-2.16,8.59,13.83,13.83,0,0,1-5.8,5.29,18.23,18.23,0,0,1-8.13,1.78,17.8,17.8,0,0,1-8-1.75,13.13,13.13,0,0,1-5.59-5.29,16.9,16.9,0,0,1-2-8.62V86.18Z"/><path class="cls-2" d="M198.37,115.34q5.3-4.38,8.34-7.19a34.1,34.1,0,0,0,5.16-5.88,10.6,10.6,0,0,0,2.11-6,5.24,5.24,0,0,0-1-3.45,3.75,3.75,0,0,0-3.08-1.24,3.79,3.79,0,0,0-3.21,1.54,7.09,7.09,0,0,0-1.16,4.34h-8.91a15.32,15.32,0,0,1,2-7.67,11.44,11.44,0,0,1,4.91-4.53,15.59,15.59,0,0,1,6.78-1.46q6.44,0,9.69,3.29a11.67,11.67,0,0,1,3.27,8.59,16.82,16.82,0,0,1-3.94,10.72,58.46,58.46,0,0,1-10,9.64h14.58v7.5H196.7v-6.85Z"/><path class="cls-2" d="M228.07,117.06v-7.45L245.14,85.2h10.31v23.87h4.43v8h-4.43v7h-9.23v-7Zm18.79-21.7-9.07,13.71h9.07Z"/><path class="cls-2" d="M289.58,91.58,276,124.08h-9.45L280.29,92.6h-16.8V84.72h26.09Z"/><path class="cls-1" d="M294.57,123.09a4.65,4.65,0,0,1-1.54-3.54,4.77,4.77,0,0,1,1.54-3.62,5.56,5.56,0,0,1,4-1.46,5.46,5.46,0,0,1,3.91,1.46,4.77,4.77,0,0,1,1.54,3.62,4.65,4.65,0,0,1-1.54,3.54,5.52,5.52,0,0,1-3.91,1.43A5.62,5.62,0,0,1,294.57,123.09Z"/><path class="cls-1" d="M310.31,95.06a17.41,17.41,0,0,1,6.78-6.86,19.65,19.65,0,0,1,9.85-2.46,18.84,18.84,0,0,1,11.56,3.57A17.1,17.1,0,0,1,344.93,99H334.77a8.12,8.12,0,0,0-3.21-3.62,9,9,0,0,0-4.72-1.24,8.84,8.84,0,0,0-6.92,3,11.5,11.5,0,0,0-2.64,7.94,11.49,11.49,0,0,0,2.64,7.93,8.84,8.84,0,0,0,6.92,3,9,9,0,0,0,4.72-1.24,8.12,8.12,0,0,0,3.21-3.62h10.16a17,17,0,0,1-6.43,9.7,18.94,18.94,0,0,1-11.56,3.53,19.64,19.64,0,0,1-9.85-2.45,17.46,17.46,0,0,1-6.78-6.83,21.81,21.81,0,0,1,0-20Z"/><path class="cls-1" d="M358.72,122a18.55,18.55,0,0,1-7.07-6.94,20.41,20.41,0,0,1,0-20,18.61,18.61,0,0,1,7.07-6.91,20.6,20.6,0,0,1,19.6,0,18.27,18.27,0,0,1,7,6.91,20.69,20.69,0,0,1,0,20,18.49,18.49,0,0,1-7,6.94,20.56,20.56,0,0,1-19.58,0Zm17.07-9a11.48,11.48,0,0,0,2.72-8,11.49,11.49,0,0,0-2.72-8,10.41,10.41,0,0,0-14.58,0,11.42,11.42,0,0,0-2.73,8,11.45,11.45,0,0,0,2.73,8,10.32,10.32,0,0,0,14.58,0Z"/><path class="cls-1" d="M436,86.18v37.9h-9.23V101.35l-8.48,22.73h-7.45l-8.54-22.78v22.78H393V86.18H404l10.64,26.24,10.53-26.24Z"/></g></g></svg>