<svg width="24" height="21" viewBox="0 0 24 21" fill="none" xmlns="http://www.w3.org/2000/svg">
<path d="M23.3414 5.13996C22.8614 4.59996 22.2014 4.23996 21.4814 4.23996H12.2414C11.9414 4.23996 11.6414 4.47996 11.6414 4.83996C11.6414 5.19996 11.9414 5.43996 12.2414 5.43996H21.4814C21.8414 5.43996 22.2014 5.61996 22.4414 5.85996C22.6814 6.15996 22.8014 6.51996 22.6814 6.87996L22.1414 9.87996H15.5414C15.2414 9.87996 14.9414 10.12 14.9414 10.48C14.9414 10.84 15.2414 11.08 15.5414 11.08H21.9614L21.4214 13.96C21.3614 14.38 20.9414 14.68 20.5214 14.68H9.00141C8.58141 14.68 8.22141 14.38 8.10141 13.96L5.76141 0.939961C5.70141 0.639961 5.46141 0.459961 5.16141 0.459961H0.541406C0.241406 0.459961 -0.0585938 0.699961 -0.0585938 1.05996C-0.0585938 1.41996 0.241406 1.65996 0.541406 1.65996H4.68141L6.96141 14.26C7.08141 15.1 7.68141 15.7 8.46141 15.94C8.16141 16.36 7.92141 16.9 7.92141 17.5C7.92141 19 9.12141 20.2 10.6214 20.2C12.1214 20.2 13.3214 19 13.3214 17.5C13.3214 16.96 13.1414 16.42 12.8414 16H16.5014C16.2014 16.42 16.0214 16.96 16.0214 17.5C16.0214 19 17.2214 20.2 18.7214 20.2C20.2214 20.2 21.4214 19 21.4214 17.5C21.4214 16.9 21.2414 16.36 20.9414 15.94C21.7214 15.76 22.3814 15.1 22.5614 14.26L23.8814 7.17996C24.0014 6.45996 23.8214 5.73996 23.3414 5.13996ZM12.1214 17.44C12.1214 18.28 11.4614 18.94 10.6214 18.94C9.78141 18.94 9.12141 18.28 9.12141 17.44C9.12141 16.6 9.78141 15.94 10.6214 15.94C11.4614 15.94 12.1214 16.6 12.1214 17.44ZM18.7814 18.94C17.9414 18.94 17.2814 18.28 17.2814 17.44C17.2814 16.6 17.9414 15.94 18.7814 15.94C19.6214 15.94 20.2814 16.6 20.2814 17.44C20.2814 18.28 19.6214 18.94 18.7814 18.94Z" fill="#1C1B1E"/>
</svg>
