<svg width="25" height="24" viewBox="0 0 25 24" fill="none" xmlns="http://www.w3.org/2000/svg">
<g clip-path="url(#clip0_650_53806)">
<path d="M7.08203 9C7.28094 9 7.47171 8.92098 7.61236 8.78033C7.75301 8.63968 7.83203 8.44891 7.83203 8.25C7.83203 8.05109 7.75301 7.86032 7.61236 7.71967C7.47171 7.57902 7.28094 7.5 7.08203 7.5H6.33203V6C6.33203 5.80109 6.25301 5.61032 6.11236 5.46967C5.97171 5.32902 5.78094 5.25 5.58203 5.25C5.38312 5.25 5.19235 5.32902 5.0517 5.46967C4.91105 5.61032 4.83203 5.80109 4.83203 6V8.25C4.83203 8.44891 4.91105 8.63968 5.0517 8.78033C5.19235 8.92098 5.38312 9 5.58203 9H7.08203Z" fill="#489B1C"/>
<path d="M24.1122 13.3461L22.7284 11.9624L21.6597 9.1124C21.6062 8.96945 21.5105 8.84619 21.3852 8.75908C21.2599 8.67198 21.111 8.62517 20.9584 8.6249H19.4584C19.2595 8.6249 19.0687 8.70392 18.9281 8.84457C18.7874 8.98522 18.7084 9.17599 18.7084 9.3749C18.7084 9.57381 18.7874 9.76458 18.9281 9.90523C19.0687 10.0459 19.2595 10.1249 19.4584 10.1249H20.4372L21.3784 12.6374C21.4163 12.7374 21.4751 12.8282 21.5509 12.9036L22.8334 14.1861V17.2499H20.9284C20.5664 16.6244 19.9907 16.1507 19.3072 15.9157C18.6238 15.6808 17.8785 15.7005 17.2084 15.9711V7.5599C17.2084 7.34507 17.1231 7.13905 16.9712 6.98714C16.8193 6.83524 16.6132 6.7499 16.3984 6.7499H10.6122C10.3635 5.91017 9.90883 5.14597 9.28941 4.52689C8.66998 3.90781 7.90553 3.45352 7.06566 3.20538C6.2258 2.95725 5.3372 2.92315 4.48079 3.1062C3.62438 3.28924 2.82736 3.68362 2.16232 4.25341C1.49727 4.82321 0.985332 5.55031 0.67311 6.36852C0.360889 7.18673 0.258307 8.07004 0.374706 8.93803C0.491105 9.80601 0.822787 10.6311 1.33955 11.3381C1.85631 12.0452 2.54173 12.6117 3.3334 12.9861V17.9399C3.3334 18.1547 3.41874 18.3608 3.57064 18.5127C3.72255 18.6646 3.92858 18.7499 4.1434 18.7499H4.4584C4.4584 19.5455 4.77447 20.3086 5.33708 20.8712C5.89969 21.4338 6.66275 21.7499 7.4584 21.7499C8.25405 21.7499 9.01711 21.4338 9.57972 20.8712C10.1423 20.3086 10.4584 19.5455 10.4584 18.7499H15.3334C15.3334 19.5455 15.6495 20.3086 16.2121 20.8712C16.7747 21.4338 17.5378 21.7499 18.3334 21.7499C19.129 21.7499 19.8921 21.4338 20.4547 20.8712C21.0173 20.3086 21.3334 19.5455 21.3334 18.7499H23.5834C23.7823 18.7499 23.9731 18.6709 24.1137 18.5302C24.2544 18.3896 24.3334 18.1988 24.3334 17.9999V13.8749C24.3326 13.6763 24.253 13.4862 24.1122 13.3461ZM1.8334 8.2499C1.8334 7.50822 2.05333 6.7832 2.46539 6.16651C2.87744 5.54983 3.46311 5.06918 4.14834 4.78535C4.83356 4.50152 5.58756 4.42726 6.31499 4.57195C7.04242 4.71665 7.7106 5.0738 8.23505 5.59825C8.7595 6.1227 9.11665 6.79088 9.26135 7.51831C9.40604 8.24574 9.33178 8.99974 9.04795 9.68496C8.76412 10.3702 8.28347 10.9559 7.66679 11.3679C7.0501 11.78 6.32508 11.9999 5.5834 11.9999C4.58884 11.9999 3.63501 11.6048 2.93175 10.9015C2.22849 10.1983 1.8334 9.24446 1.8334 8.2499ZM7.4584 20.2499C7.16173 20.2499 6.87172 20.1619 6.62505 19.9971C6.37837 19.8323 6.18611 19.598 6.07258 19.3239C5.95905 19.0498 5.92934 18.7482 5.98722 18.4573C6.0451 18.1663 6.18796 17.899 6.39774 17.6892C6.60752 17.4795 6.87479 17.3366 7.16577 17.2787C7.45674 17.2208 7.75834 17.2505 8.03243 17.3641C8.30651 17.4776 8.54078 17.6699 8.7056 17.9165C8.87043 18.1632 8.9584 18.4532 8.9584 18.7499C8.9584 19.1477 8.80037 19.5293 8.51906 19.8106C8.23776 20.0919 7.85623 20.2499 7.4584 20.2499ZM18.3334 20.2499C18.0367 20.2499 17.7467 20.1619 17.5 19.9971C17.2534 19.8323 17.0611 19.598 16.9476 19.3239C16.834 19.0498 16.8043 18.7482 16.8622 18.4573C16.9201 18.1663 17.063 17.899 17.2727 17.6892C17.4825 17.4795 17.7498 17.3366 18.0408 17.2787C18.3317 17.2208 18.6333 17.2505 18.9074 17.3641C19.1815 17.4776 19.4158 17.6699 19.5806 17.9165C19.7454 18.1632 19.8334 18.4532 19.8334 18.7499C19.8334 19.1477 19.6754 19.5293 19.3941 19.8106C19.1128 20.0919 18.7312 20.2499 18.3334 20.2499Z" fill="#489B1C"/>
</g>
<defs>
<clipPath id="clip0_650_53806">
<rect width="24" height="24" fill="white" transform="translate(0.332031)"/>
</clipPath>
</defs>
</svg>
