<svg width="14" height="14" viewBox="0 0 14 14" fill="none" xmlns="http://www.w3.org/2000/svg">
<g id="vuesax/bold/ship">
<g id="ship">
<path id="Vector" d="M12.6186 8.55245L12.3795 9.63745C11.9653 11.5041 10.5011 12.8341 8.38948 12.8341H5.61282C3.50115 12.8341 2.03698 11.5041 1.62282 9.63745L1.38365 8.55245C1.26698 8.02161 1.58198 7.42078 2.08948 7.21661L2.91782 6.88411L6.13198 5.59495C6.41198 5.48411 6.70948 5.42578 7.00115 5.42578C7.29282 5.42578 7.59032 5.48411 7.87032 5.59495L11.0845 6.88411L11.9128 7.21661C12.4203 7.42078 12.7353 8.02161 12.6186 8.55245Z" fill="#48464A"/>
<path id="Vector_2" d="M11.0846 4.66602V5.50602C11.0846 5.71018 10.8746 5.85602 10.6821 5.77435L8.1913 4.77685C7.42714 4.47935 6.57547 4.47935 5.80547 4.78268L3.32047 5.78018C3.12797 5.86185 2.91797 5.71602 2.91797 5.51185V4.66602C2.91797 3.70352 3.70547 2.91602 4.66797 2.91602H9.33464C10.2971 2.91602 11.0846 3.70352 11.0846 4.66602Z" fill="#48464A"/>
<path id="Vector_3" d="M8.45964 2.91602H5.54297V1.74935C5.54297 1.42852 5.80547 1.16602 6.1263 1.16602H7.8763C8.19714 1.16602 8.45964 1.42852 8.45964 1.74935V2.91602Z" fill="#48464A"/>
</g>
</g>
</svg>
