<svg width="14" height="14" viewBox="0 0 14 14" fill="none" xmlns="http://www.w3.org/2000/svg">
<g id="vuesax/bold/car">
<g id="car">
<path id="Vector" d="M12.6875 4.66622C12.6875 4.90539 12.4892 5.10372 12.25 5.10372H1.75C1.51083 5.10372 1.3125 4.90539 1.3125 4.66622C1.3125 4.42706 1.51083 4.22872 1.75 4.22872H2.345L2.56667 3.17289C2.77667 2.15206 3.21417 1.21289 4.9525 1.21289H9.0475C10.7858 1.21289 11.2233 2.15206 11.4333 3.17289L11.655 4.22872H12.25C12.4892 4.22872 12.6875 4.42706 12.6875 4.66622Z" fill="#48464A"/>
<path id="Vector_2" d="M12.9366 7.96768C12.8491 7.00518 12.5925 5.97852 10.72 5.97852H3.27663C1.40413 5.97852 1.1533 7.00518 1.05997 7.96768L0.7333 11.5202C0.692467 11.9635 0.8383 12.4068 1.14163 12.7393C1.4508 13.0777 1.8883 13.2702 2.35497 13.2702H3.45163C4.39663 13.2702 4.57747 12.7277 4.69413 12.3718L4.8108 12.0218C4.94497 11.6193 4.97997 11.5202 5.50497 11.5202H8.49163C9.01663 11.5202 9.03413 11.5785 9.1858 12.0218L9.30247 12.3718C9.41913 12.7277 9.59997 13.2702 10.545 13.2702H11.6416C12.1025 13.2702 12.5458 13.0777 12.855 12.7393C13.1583 12.4068 13.3041 11.9635 13.2633 11.5202L12.9366 7.96768ZM5.2483 9.18685H3.4983C3.25913 9.18685 3.0608 8.98852 3.0608 8.74935C3.0608 8.51018 3.25913 8.31185 3.4983 8.31185H5.2483C5.48747 8.31185 5.6858 8.51018 5.6858 8.74935C5.6858 8.98852 5.48747 9.18685 5.2483 9.18685ZM10.4983 9.18685H8.7483C8.50913 9.18685 8.3108 8.98852 8.3108 8.74935C8.3108 8.51018 8.50913 8.31185 8.7483 8.31185H10.4983C10.7375 8.31185 10.9358 8.51018 10.9358 8.74935C10.9358 8.98852 10.7375 9.18685 10.4983 9.18685Z" fill="#48464A"/>
</g>
</g>
</svg>
