<svg width="14" height="14" viewBox="0 0 14 14" fill="none" xmlns="http://www.w3.org/2000/svg">
<g id="vuesax/bold/bus">
<g id="bus">
<path id="Vector" d="M2.33203 7.87565V11.0257C2.33203 12.0173 3.14286 12.834 4.14036 12.834H9.85703C10.8487 12.834 11.6654 12.0232 11.6654 11.0257V7.87565C11.6654 7.71232 11.537 7.58398 11.3737 7.58398H2.6237C2.46036 7.58398 2.33203 7.71232 2.33203 7.87565ZM5.1787 10.7223C5.04453 10.8623 4.85786 10.9382 4.66536 10.9382C4.6187 10.9382 4.57203 10.9323 4.52536 10.9265C4.4787 10.9148 4.43203 10.9032 4.38536 10.8798C4.34453 10.8623 4.29786 10.839 4.26286 10.8157C4.22203 10.7865 4.1812 10.7573 4.15203 10.7223C4.01203 10.5882 3.9362 10.4015 3.9362 10.209C3.9362 10.0165 4.01203 9.82982 4.15203 9.69565C4.1812 9.66065 4.22203 9.63148 4.26286 9.60232C4.29786 9.57898 4.34453 9.55565 4.38536 9.53815C4.43203 9.51482 4.4787 9.50315 4.52536 9.49148C4.7587 9.44482 5.00953 9.52648 5.1787 9.69565C5.3187 9.82982 5.39453 10.0165 5.39453 10.209C5.39453 10.4015 5.3187 10.5882 5.1787 10.7223ZM9.84536 10.7223C9.8162 10.7573 9.77536 10.7865 9.73453 10.8157C9.69953 10.839 9.65286 10.8623 9.61203 10.8798C9.56536 10.9032 9.5187 10.9148 9.47786 10.9265C9.42536 10.9323 9.3787 10.9382 9.33203 10.9382C9.28536 10.9382 9.2387 10.9323 9.19203 10.9265C9.14536 10.9148 9.0987 10.9032 9.05203 10.8798C9.0112 10.8623 8.96453 10.839 8.92953 10.8157C8.8887 10.7865 8.84786 10.7573 8.8187 10.7223C8.6787 10.5882 8.60286 10.4015 8.60286 10.209C8.60286 10.0165 8.6787 9.82982 8.8187 9.69565C8.84786 9.66065 8.8887 9.63148 8.92953 9.60232C8.96453 9.57898 9.0112 9.55565 9.05203 9.53815C9.0987 9.51482 9.14536 9.50315 9.19203 9.49148C9.28536 9.47398 9.3787 9.47398 9.47786 9.49148C9.5187 9.50315 9.56536 9.51482 9.61203 9.53815C9.65286 9.55565 9.69953 9.57898 9.73453 9.60232C9.77536 9.63148 9.8162 9.66065 9.84536 9.69565C9.98536 9.82982 10.0612 10.0165 10.0612 10.209C10.0612 10.4015 9.98536 10.5882 9.84536 10.7223Z" fill="#48464A"/>
<path id="Vector_2" d="M9.85703 1.16602H4.14036C3.14286 1.16602 2.33203 1.97685 2.33203 2.97435V4.37435C2.33203 4.53768 2.46036 4.66602 2.6237 4.66602H11.3737C11.537 4.66602 11.6654 4.53768 11.6654 4.37435V2.97435C11.6654 1.97685 10.8545 1.16602 9.85703 1.16602ZM8.45703 3.35352H5.54036C5.3012 3.35352 5.10286 3.15518 5.10286 2.91602C5.10286 2.67685 5.3012 2.47852 5.54036 2.47852H8.45703C8.6962 2.47852 8.89453 2.67685 8.89453 2.91602C8.89453 3.15518 8.6962 3.35352 8.45703 3.35352Z" fill="#48464A"/>
<path id="Vector_3" d="M11.3737 7H2.6237C2.46036 7 2.33203 6.87167 2.33203 6.70833V5.54167C2.33203 5.37833 2.46036 5.25 2.6237 5.25H11.3737C11.537 5.25 11.6654 5.37833 11.6654 5.54167V6.70833C11.6654 6.87167 11.537 7 11.3737 7Z" fill="#48464A"/>
</g>
</g>
</svg>
