<svg width="14" height="14" viewBox="0 0 14 14" fill="none" xmlns="http://www.w3.org/2000/svg">
<g id="vuesax/bold/airplane">
<g id="airplane">
<path id="Vector" d="M11.6973 6.20164L8.97312 5.02914L8.36646 4.77247C8.27313 4.72581 8.19146 4.60331 8.19146 4.49831V2.71331C8.19146 2.15331 7.77729 1.48831 7.27562 1.23164C7.10062 1.14414 6.89063 1.14414 6.71563 1.23164C6.21979 1.48831 5.80562 2.15914 5.80562 2.71914V4.50414C5.80562 4.60914 5.72396 4.73164 5.63062 4.77831L2.30563 6.20747C1.93813 6.35914 1.64062 6.81997 1.64062 7.21664V7.98664C1.64062 8.48247 2.01396 8.72747 2.47479 8.52914L5.39729 7.26914C5.62479 7.16997 5.81146 7.29247 5.81146 7.54331V8.19081V9.24081C5.81146 9.37498 5.73562 9.56747 5.64229 9.66081L4.28896 11.02C4.14896 11.16 4.08479 11.4341 4.14896 11.6325L4.41146 12.4258C4.51646 12.77 4.90729 12.9333 5.22812 12.77L6.61646 11.6033C6.82646 11.4225 7.17062 11.4225 7.38062 11.6033L8.76896 12.77C9.08979 12.9275 9.48063 12.77 9.59729 12.4258L9.85979 11.6325C9.92396 11.44 9.85979 11.16 9.71979 11.02L8.36646 9.66081C8.26729 9.56747 8.19146 9.37498 8.19146 9.24081V7.54331C8.19146 7.29247 8.37229 7.17581 8.60563 7.26914L11.5281 8.52914C11.989 8.72747 12.3623 8.48247 12.3623 7.98664V7.21664C12.3623 6.81997 12.0648 6.35914 11.6973 6.20164Z" fill="#48464A"/>
</g>
</g>
</svg>
